<?xml version="1.0" encoding="UTF-8"?>
<svg width="48px" height="84px" viewBox="0 0 48 84" version="1.1" xmlns="http://www.w3.org/2000/svg" xmlns:xlink="http://www.w3.org/1999/xlink">
    <!-- Generator: Sketch 49.2 (51160) - http://www.bohemiancoding.com/sketch -->
    <title>oklogo</title>
    <desc>Created with Sketch.</desc>
    <defs></defs>
    <g id="oklogo" stroke="none" stroke-width="1" fill="none" fill-rule="evenodd">
        <path d="M23.9513362,42.9989215 C12.2062604,42.9989215 2.45187543,33.2445365 2.45187543,21.6985298 C2.45187543,9.75438498 12.2062604,0 23.9513362,0 C36.0945501,0 45.450797,9.75438498 45.450797,21.6985298 C45.450797,33.2445365 36.0945501,42.9989215 23.9513362,42.9989215 Z M23.9513362,12.5413521 C18.9746092,12.5413521 15.1922966,16.7218028 15.1922966,21.6985298 C15.1922966,26.6752569 18.9746092,30.4575694 23.9513362,30.4575694 C29.1271323,30.4575694 32.7103758,26.6752569 32.7103758,21.6985298 C32.7103758,16.7218028 29.1271323,12.5413521 23.9513362,12.5413521 Z M32.5113067,60.7160697 L44.6545206,72.4611455 C47.0433496,75.0490436 47.0433496,78.8313561 44.6545206,81.2201851 C42.0666226,83.8080832 38.085241,83.8080832 36.0945501,81.2201851 L23.9513362,69.2760402 L12.2062604,81.2201851 C11.0118459,82.4145996 9.41929327,83.0118068 7.62767154,83.0118068 C6.23418797,83.0118068 4.64163532,82.4145996 3.24815176,81.2201851 C0.859322783,78.8313561 0.859322783,75.0490436 3.24815176,72.4611455 L15.5904348,60.7160697 C11.0118459,59.3225862 6.83139522,57.5309644 2.85001359,55.1421355 C-0.136022623,53.5495828 -0.733229866,49.5682012 0.859322783,46.582165 C2.85001359,43.5961288 6.43325705,42.7998524 9.61836235,44.7905433 C18.3774019,50.1654084 29.5252705,50.1654084 38.28431,44.7905433 C41.4694153,42.7998524 45.2517279,43.5961288 47.0433496,46.582165 C48.8349713,49.5682012 48.038695,53.5495828 45.2517279,55.1421355 C41.4694153,57.5309644 37.0898955,59.3225862 32.5113067,60.7160697 Z" id="" fill="#EE8208"></path>
    </g>
</svg>